<svg width="1440" height="1173" viewBox="0 0 1440 1173" fill="none" xmlns="http://www.w3.org/2000/svg">
<path d="M-535.889 827.487L159.506 82.3305C230.416 6.34513 357.308 76.3827 329.542 176.182L276.372 367.278C250.044 461.903 364.685 533.012 439.085 468.206L837.445 121.206C912.871 55.5092 1028.66 129.431 999.437 224.619L802.31 866.554C772.65 963.15 891.8 1036.89 966.39 968.091L1235.56 719.814C1306.89 654.01 1422.04 718.703 1401.75 813.193L1373.34 945.554C1354.2 1034.8 1457.49 1100.33 1531.29 1045.76L2025.49 680.375C2099.42 625.713 2202.84 691.555 2183.36 780.887L1946.23 1868.71" stroke="#6F3689" stroke-opacity="0.12" stroke-width="100"/>
</svg>
