<svg width="345" height="423" viewBox="0 0 345 423" fill="none" xmlns="http://www.w3.org/2000/svg">
<path d="M258.489 155.072C299.49 206.894 326.96 261.414 338.244 307.652C349.538 353.936 344.575 391.719 321.035 410.343C297.496 428.967 259.584 425.106 217.14 403.468C174.738 381.851 127.999 342.575 86.998 290.753C45.996 238.93 18.526 184.41 7.24198 138.172C-4.05202 91.8879 0.910975 54.1049 24.451 35.4809C47.991 16.8568 85.902 20.7181 128.347 42.3569C170.749 63.9739 217.487 103.249 258.489 155.072Z" stroke="#6F3689"/>
<path d="M73.104 47.2222L101.441 29.968L85.528 0.857422L102.782 29.1939L131.892 13.2808L103.556 30.5346L119.469 59.6452L102.215 31.3087L73.104 47.2222Z" fill="#FDC949"/>
<path d="M85.299 25.6424L101.951 29.3028L107.107 13.0513L103.447 29.7036L119.698 34.8599L103.046 31.1992L97.89 47.4509L101.55 30.7985L85.299 25.6424Z" fill="#FDC949"/>
</svg>
