<svg width="297" height="339" viewBox="0 0 297 339" fill="none" xmlns="http://www.w3.org/2000/svg">
<path d="M220.691 228.097C185.088 271.708 144.764 304.553 108.368 322.412C71.929 340.292 39.6169 343.07 19.8401 326.925C0.0633259 310.78 -3.68258 278.566 6.54202 239.286C16.7545 200.051 40.8637 153.969 76.466 110.357C112.069 66.7461 152.393 33.9007 188.789 16.0417C225.229 -1.83841 257.541 -4.6163 277.317 11.5286C297.094 27.6736 300.84 59.8881 290.615 99.1681C280.403 138.402 256.294 184.485 220.691 228.097Z" stroke="#6F3689"/>
<path d="M122.965 275.726L150.361 294.437L170.33 267.944L151.619 295.34L178.112 315.309L150.716 296.598L130.747 323.091L149.458 295.695L122.965 275.726Z" fill="#FDC949"/>
<path d="M147.651 277.947L151.177 294.628L168.109 292.63L151.428 296.156L153.425 313.088L149.9 296.407L132.968 298.404L149.649 294.879L147.651 277.947Z" fill="#FDC949"/>
</svg>
