<svg width="1440" height="2948" fill="none" xmlns="http://www.w3.org/2000/svg"><path d="M-575.829 517.806 363.092 63.913c95.743-46.285 194.968 94.518 132.962 188.676L377.321 432.885c-58.792 89.276 28.111 224.987 123.344 192.619l509.915-173.319c96.54-32.811 183.58 106.54 121.77 194.949L715.441 1243.33c-62.732 89.72 27.649 230.59 124.464 193.98l349.375-132.1c92.6-35.02 182.24 93.99 129.38 186.2l-74.03 129.18c-49.91 87.1 27.88 210.96 118.95 189.4l609.81-144.35c91.22-21.6 169.03 102.67 118.77 189.7l-611.98 1059.79" stroke="#6F3689" stroke-opacity=".12" stroke-width="100"/></svg>