<svg width="1440" height="1173" fill="none" xmlns="http://www.w3.org/2000/svg"><path d="M-535.889 827.487 159.506 82.331c70.91-75.986 197.802-5.948 170.036 93.851l-53.17 191.096c-26.328 94.625 88.313 165.734 162.713 100.928l398.36-347c75.426-65.697 191.215 8.225 161.992 103.413L802.31 866.554c-29.66 96.596 89.49 170.336 164.08 101.537l269.17-248.277c71.33-65.804 186.48-1.111 166.19 93.379l-28.41 132.361c-19.14 89.246 84.15 154.776 157.95 100.206l494.2-365.385c73.93-54.662 177.35 11.18 157.87 100.512L1946.23 1868.71" stroke="#6F3689" stroke-opacity=".12" stroke-width="100"/></svg>