<svg width="1440" height="3284" fill="none" xmlns="http://www.w3.org/2000/svg"><path d="m-39.706 3268.36-345.52-1151.7c-35.234-117.45 83.875-233.39 159.607-155.37l145.011 149.39c71.805 73.97 186.34-27.2 162.563-143.59l-127.313-623.24c-24.102-118 93.439-219.23 164.436-141.62l478.78 523.44c72.047 78.77 190.939-26.46 163.719-144.9l-98.238-427.43c-26.04-113.28 83.05-217.978 157.459-151.11l104.234 93.66c70.283 63.14 174.768-27.34 159.778-138.368L984.427 214.117C969.409 102.903 1074.23 12.408 1144.44 75.976l855.02 773.999" stroke="#6F3689" stroke-opacity=".12" stroke-width="100"/></svg>