<svg width="345" height="423" fill="none" xmlns="http://www.w3.org/2000/svg"><path d="M258.489 155.072c41.001 51.822 68.471 106.342 79.755 152.58 11.294 46.284 6.331 84.067-17.209 102.691-23.539 18.624-61.451 14.763-103.895-6.875-42.402-21.617-89.141-60.893-130.142-112.715C45.996 238.93 18.526 184.41 7.242 138.172-4.052 91.888.911 54.105 24.451 35.481c23.54-18.624 61.451-14.763 103.896 6.876 42.402 21.617 89.14 60.892 130.142 112.715Z" stroke="#6F3689"/><path d="m73.104 47.222 28.337-17.254L85.528.858l17.254 28.336 29.11-15.913-28.336 17.254 15.913 29.11-17.254-28.336-29.111 15.913Z" fill="#FDC949"/><path d="m85.299 25.642 16.652 3.66 5.156-16.25-3.66 16.652 16.251 5.156-16.652-3.66-5.156 16.25 3.66-16.652-16.251-5.156Z" fill="#FDC949"/></svg>