<svg width="66" height="66" fill="none" xmlns="http://www.w3.org/2000/svg"><rect width="66" height="66" rx="33" fill="#1573FF"/><g clip-path="url(#a)"><path fill-rule="evenodd" clip-rule="evenodd" d="M32.292 40.393h1.642s.496-.05.749-.301c.233-.231.225-.664.225-.664s-.032-2.028.99-2.327c1.008-.294 2.302 1.96 3.674 2.827 1.037.656 1.825.512 1.825.512l3.668-.047s1.919-.109 1.009-1.498c-.075-.113-.53-1.027-2.727-2.905-2.3-1.965-1.992-1.647.779-5.046 1.687-2.07 2.361-3.334 2.15-3.875-.2-.516-1.441-.38-1.441-.38l-4.13.024s-.306-.038-.533.087c-.222.122-.365.408-.365.408s-.653 1.602-1.525 2.964c-1.839 2.875-2.574 3.027-2.874 2.848-.7-.416-.525-1.671-.525-2.563 0-2.786.459-3.947-.894-4.248-.449-.1-.779-.166-1.927-.176-1.473-.015-2.72.004-3.427.322-.47.212-.832.684-.611.711.273.034.891.154 1.219.564.423.53.408 1.72.408 1.72s.243 3.28-.568 3.688c-.556.279-1.32-.292-2.96-2.9a23.437 23.437 0 0 1-1.474-2.812s-.122-.276-.34-.424c-.265-.178-.635-.236-.635-.236l-3.924.024s-.589.015-.805.251c-.192.21-.015.644-.015.644s3.072 6.617 6.55 9.951c3.19 3.058 6.812 2.857 6.812 2.857Z" fill="#fff"/></g><defs><clipPath id="a"><path fill="#fff" transform="translate(18 26)" d="M0 0h29v15H0z"/></clipPath></defs></svg>