<svg width="297" height="339" fill="none" xmlns="http://www.w3.org/2000/svg"><path d="M220.691 228.097c-35.603 43.611-75.927 76.456-112.323 94.315-36.439 17.88-68.751 20.658-88.528 4.513C.063 310.78-3.683 278.566 6.542 239.286c10.213-39.235 34.322-85.317 69.924-128.929 35.603-43.61 75.927-76.456 112.323-94.315 36.44-17.88 68.752-20.658 88.528-4.513 19.777 16.145 23.523 48.36 13.298 87.64-10.212 39.233-34.321 85.316-69.924 128.928Z" stroke="#6F3689"/><path d="m122.965 275.726 27.396 18.711 19.969-26.493-18.711 27.396 26.493 19.969-27.396-18.711-19.969 26.493 18.711-27.396-26.493-19.969Z" fill="#FDC949"/><path d="m147.651 277.947 3.526 16.681 16.932-1.998-16.681 3.526 1.997 16.932-3.525-16.681-16.932 1.997 16.681-3.525-1.998-16.932Z" fill="#FDC949"/></svg>