<svg width="430" height="516" fill="none" xmlns="http://www.w3.org/2000/svg"><path d="M285.806 322.98c-39.445 53.017-84.997 93.663-126.739 116.529-41.784 22.889-79.564 27.874-103.646 9.956-24.082-17.917-30.165-55.536-20.249-102.135 9.906-46.552 35.746-101.863 75.191-154.88 39.445-53.017 84.997-93.662 126.739-116.528 41.784-22.89 79.564-27.874 103.646-9.957 24.082 17.917 30.165 55.536 20.249 102.135-9.906 46.552-35.746 101.864-75.191 154.88Z" stroke="#6F3689"/><path d="m216 50 24 22.905L264 50l-22.905 24L264 98l-24-22.905L216 98l22.905-24L216 50Z" fill="#FDC949"/><path d="m240 56.194.774 17.032 17.032.774-17.032.774L240 91.806l-.774-17.032L222.194 74l17.032-.774.774-17.032Z" fill="#FDC949"/></svg>