<svg width="553" height="569" fill="none" xmlns="http://www.w3.org/2000/svg"><path d="M387.047 410.316c-48.535 44.844-100.795 76.402-146.035 91.189-45.284 14.8-83.336 12.741-103.706-9.306-20.369-22.046-19.419-60.142-1.09-104.116 18.311-43.931 53.898-93.537 102.433-138.38 48.536-44.845 100.796-76.404 146.035-91.191 45.285-14.8 83.337-12.741 103.707 9.306 20.369 22.047 19.418 60.142 1.089 104.118-18.311 43.93-53.897 93.535-102.433 138.38Z" stroke="#6F3689"/><path d="m480.405 217.226 19.37 26.935 27.809-18.093-26.934 19.371 18.092 27.808-19.37-26.934-27.809 18.092 26.935-19.37-18.093-27.809Z" fill="#FDC949"/><path d="m502.853 227.735-2.376 16.883 16.598 3.899-16.883-2.376-3.899 16.597 2.377-16.883-16.598-3.898 16.883 2.376 3.898-16.598Z" fill="#FDC949"/></svg>