<?xml version="1.0" encoding="utf-8"?><svg viewBox="0 0 98 98" xmlns="http://www.w3.org/2000/svg" xmlns:xlink="http://www.w3.org/1999/xlink"><style>:root>svg{display:none}:root>svg:target{display:block}</style><svg fill="none" viewBox="0 0 98 98" id="icon-star-gold" xmlns="http://www.w3.org/2000/svg"><g clip-path="url(#aclip0_323_10)" fill="#FFE193"><path d="M0 0l49 46.765L98 0 51.235 49 98 98 49 51.235 0 98l46.765-49L0 0z"/><path d="M49 12.645l1.58 34.774L85.356 49l-34.774 1.58L49 85.356l-1.58-34.774L12.644 49l34.774-1.58L49 12.644z"/></g><defs><clipPath id="aclip0_323_10"><path fill="#fff" d="M0 0h98v98H0z"/></clipPath></defs></svg><svg fill="none" viewBox="0 0 82 82" id="icon-star-white" xmlns="http://www.w3.org/2000/svg"><g clip-path="url(#bclip0_53_16)" fill="#fff"><path d="M0 0l41 39.13L82 0 42.87 41 82 82 41 42.87 0 82l39.13-41L0 0z"/><path d="M41 10.58l1.323 29.097L71.419 41l-29.096 1.322L41 71.42l-1.323-29.097L10.581 41l29.096-1.323L41 10.581z"/></g><defs><clipPath id="bclip0_53_16"><path fill="#fff" d="M0 0h82v82H0z"/></clipPath></defs></svg></svg>