<?xml version="1.0" encoding="utf-8"?><svg viewBox="0 0 1440 2000" xmlns="http://www.w3.org/2000/svg" xmlns:xlink="http://www.w3.org/1999/xlink"><style>:root>svg{display:none}:root>svg:target{display:block}</style><svg fill="none" viewBox="0 0 1440 1173" id="bg-line-1" xmlns="http://www.w3.org/2000/svg"><path d="M-535.889 827.487L159.506 82.331c70.91-75.986 197.802-5.948 170.036 93.851l-53.17 191.096c-26.328 94.625 88.313 165.734 162.713 100.928l398.36-347c75.426-65.697 191.215 8.225 161.992 103.413L802.31 866.554c-29.66 96.596 89.49 170.336 164.08 101.537l269.17-248.277c71.33-65.804 186.48-1.111 166.19 93.379l-28.41 132.361c-19.14 89.246 84.15 154.776 157.95 100.206l494.2-365.385c73.93-54.662 177.35 11.18 157.87 100.512L1946.23 1868.71" stroke="#6F3689" stroke-opacity=".12" stroke-width="100"/></svg><svg fill="none" viewBox="0 0 1440 2948" id="bg-line-2" xmlns="http://www.w3.org/2000/svg"><path d="M-575.829 517.806L363.092 63.913c95.743-46.285 194.968 94.518 132.962 188.676L377.321 432.885c-58.792 89.276 28.111 224.987 123.344 192.619l509.915-173.319c96.54-32.811 183.58 106.54 121.77 194.949L715.441 1243.33c-62.732 89.72 27.649 230.59 124.464 193.98l349.375-132.1c92.6-35.02 182.24 93.99 129.38 186.2l-74.03 129.18c-49.91 87.1 27.88 210.96 118.95 189.4l609.81-144.35c91.22-21.6 169.03 102.67 118.77 189.7l-611.98 1059.79" stroke="#6F3689" stroke-opacity=".12" stroke-width="100"/></svg><svg fill="none" viewBox="0 0 1440 3284" id="bg-line-3" xmlns="http://www.w3.org/2000/svg"><path d="M-39.706 3268.36l-345.52-1151.7c-35.234-117.45 83.875-233.39 159.607-155.37l145.011 149.39c71.805 73.97 186.34-27.2 162.563-143.59l-127.313-623.24c-24.102-118 93.439-219.23 164.436-141.62l478.78 523.44c72.047 78.77 190.939-26.46 163.719-144.9l-98.238-427.43c-26.04-113.28 83.05-217.978 157.459-151.11l104.234 93.66c70.283 63.14 174.768-27.34 159.778-138.368L984.427 214.117C969.409 102.903 1074.23 12.408 1144.44 75.976l855.02 773.999" stroke="#6F3689" stroke-opacity=".12" stroke-width="100"/></svg><svg fill="none" viewBox="0 0 98 98" id="icon-star-gold" xmlns="http://www.w3.org/2000/svg"><g clip-path="url(#dclip0_323_10)" fill="#FFE193"><path d="M0 0l49 46.765L98 0 51.235 49 98 98 49 51.235 0 98l46.765-49L0 0z"/><path d="M49 12.645l1.58 34.774L85.356 49l-34.774 1.58L49 85.356l-1.58-34.774L12.644 49l34.774-1.58L49 12.644z"/></g><defs><clipPath id="dclip0_323_10"><path fill="#fff" d="M0 0h98v98H0z"/></clipPath></defs></svg><svg fill="none" viewBox="0 0 553 569" id="icon-star-radio-1" xmlns="http://www.w3.org/2000/svg"><path d="M387.047 410.316c-48.535 44.844-100.795 76.402-146.035 91.189-45.284 14.8-83.336 12.741-103.706-9.306-20.369-22.046-19.419-60.142-1.09-104.116 18.311-43.931 53.898-93.537 102.433-138.38 48.536-44.845 100.796-76.404 146.035-91.191 45.285-14.8 83.337-12.741 103.707 9.306 20.369 22.047 19.418 60.142 1.089 104.118-18.311 43.93-53.897 93.535-102.433 138.38z" stroke="#6F3689"/><path d="M480.405 217.226l19.37 26.935 27.809-18.093-26.934 19.371 18.092 27.808-19.37-26.934-27.809 18.092 26.935-19.37-18.093-27.809z" fill="#FDC949"/><path d="M502.853 227.735l-2.376 16.883 16.598 3.899-16.883-2.376-3.899 16.597 2.377-16.883-16.598-3.898 16.883 2.376 3.898-16.598z" fill="#FDC949"/></svg><svg fill="none" viewBox="0 0 430 516" id="icon-star-radio-2" xmlns="http://www.w3.org/2000/svg"><path d="M285.806 322.98c-39.445 53.017-84.997 93.663-126.739 116.529-41.784 22.889-79.564 27.874-103.646 9.956-24.082-17.917-30.165-55.536-20.249-102.135 9.906-46.552 35.746-101.863 75.191-154.88 39.445-53.017 84.997-93.662 126.739-116.528 41.784-22.89 79.564-27.874 103.646-9.957 24.082 17.917 30.165 55.536 20.249 102.135-9.906 46.552-35.746 101.864-75.191 154.88z" stroke="#6F3689"/><path d="M216 50l24 22.905L264 50l-22.905 24L264 98l-24-22.905L216 98l22.905-24L216 50z" fill="#FDC949"/><path d="M240 56.194l.774 17.032 17.032.774-17.032.774L240 91.806l-.774-17.032L222.194 74l17.032-.774.774-17.032z" fill="#FDC949"/></svg><svg fill="none" viewBox="0 0 345 423" id="icon-star-radio-3" xmlns="http://www.w3.org/2000/svg"><path d="M258.489 155.072c41.001 51.822 68.471 106.342 79.755 152.58 11.294 46.284 6.331 84.067-17.209 102.691-23.539 18.624-61.451 14.763-103.895-6.875-42.402-21.617-89.141-60.893-130.142-112.715C45.996 238.93 18.526 184.41 7.242 138.172-4.052 91.888.911 54.105 24.451 35.481c23.54-18.624 61.451-14.763 103.896 6.876 42.402 21.617 89.14 60.892 130.142 112.715z" stroke="#6F3689"/><path d="M73.104 47.222l28.337-17.254L85.528.858l17.254 28.336 29.11-15.913-28.336 17.254 15.913 29.11-17.254-28.336-29.111 15.913z" fill="#FDC949"/><path d="M85.299 25.642l16.652 3.66 5.156-16.25-3.66 16.652 16.251 5.156-16.652-3.66-5.156 16.25 3.66-16.652-16.251-5.156z" fill="#FDC949"/></svg><svg fill="none" viewBox="0 0 297 339" id="icon-star-radio-4" xmlns="http://www.w3.org/2000/svg"><path d="M220.691 228.097c-35.603 43.611-75.927 76.456-112.323 94.315-36.439 17.88-68.751 20.658-88.528 4.513C.063 310.78-3.683 278.566 6.542 239.286c10.213-39.235 34.322-85.317 69.924-128.929 35.603-43.61 75.927-76.456 112.323-94.315 36.44-17.88 68.752-20.658 88.528-4.513 19.777 16.145 23.523 48.36 13.298 87.64-10.212 39.233-34.321 85.316-69.924 128.928z" stroke="#6F3689"/><path d="M122.965 275.726l27.396 18.711 19.969-26.493-18.711 27.396 26.493 19.969-27.396-18.711-19.969 26.493 18.711-27.396-26.493-19.969z" fill="#FDC949"/><path d="M147.651 277.947l3.526 16.681 16.932-1.998-16.681 3.526 1.997 16.932-3.525-16.681-16.932 1.997 16.681-3.525-1.998-16.932z" fill="#FDC949"/></svg><svg fill="none" viewBox="0 0 82 82" id="icon-star-white" xmlns="http://www.w3.org/2000/svg"><g clip-path="url(#iclip0_53_16)" fill="#fff"><path d="M0 0l41 39.13L82 0 42.87 41 82 82 41 42.87 0 82l39.13-41L0 0z"/><path d="M41 10.58l1.323 29.097L71.419 41l-29.096 1.322L41 71.42l-1.323-29.097L10.581 41l29.096-1.323L41 10.581z"/></g><defs><clipPath id="iclip0_53_16"><path fill="#fff" d="M0 0h82v82H0z"/></clipPath></defs></svg><svg fill="none" viewBox="0 0 66 66" id="icon-vk" xmlns="http://www.w3.org/2000/svg"><rect width="66" height="66" rx="33" fill="#1573FF"/><g clip-path="url(#jclip0_35_18)"><path fill-rule="evenodd" clip-rule="evenodd" d="M32.292 40.393h1.642s.496-.05.749-.301c.233-.231.225-.664.225-.664s-.032-2.028.99-2.327c1.008-.294 2.302 1.96 3.674 2.827 1.037.656 1.825.512 1.825.512l3.668-.047s1.919-.109 1.009-1.498c-.075-.113-.53-1.027-2.727-2.905-2.3-1.965-1.992-1.647.779-5.046 1.687-2.07 2.361-3.334 2.15-3.875-.2-.516-1.441-.38-1.441-.38l-4.13.024s-.306-.038-.533.087c-.222.122-.365.408-.365.408s-.653 1.602-1.525 2.964c-1.839 2.875-2.574 3.027-2.874 2.848-.7-.416-.525-1.671-.525-2.563 0-2.786.459-3.947-.894-4.248-.449-.1-.779-.166-1.927-.176-1.473-.015-2.72.004-3.427.322-.47.212-.832.684-.611.711.273.034.891.154 1.219.564.423.53.408 1.72.408 1.72s.243 3.28-.568 3.688c-.556.279-1.32-.292-2.96-2.9a23.437 23.437 0 01-1.474-2.812s-.122-.276-.34-.424c-.265-.178-.635-.236-.635-.236l-3.924.024s-.589.015-.805.251c-.192.21-.015.644-.015.644s3.072 6.617 6.55 9.951c3.19 3.058 6.812 2.857 6.812 2.857z" fill="#fff"/></g><defs><clipPath id="jclip0_35_18"><path fill="#fff" transform="translate(18 26)" d="M0 0h29v15H0z"/></clipPath></defs></svg></svg>