<?xml version="1.0" encoding="utf-8"?><svg viewBox="0 0 1440 2000" xmlns="http://www.w3.org/2000/svg" xmlns:xlink="http://www.w3.org/1999/xlink"><style>:root>svg{display:none}:root>svg:target{display:block}</style><svg fill="none" viewBox="0 0 1440 1173" id="bg-line-1" xmlns="http://www.w3.org/2000/svg"><path d="M-535.889 827.487L159.506 82.331c70.91-75.986 197.802-5.948 170.036 93.851l-53.17 191.096c-26.328 94.625 88.313 165.734 162.713 100.928l398.36-347c75.426-65.697 191.215 8.225 161.992 103.413L802.31 866.554c-29.66 96.596 89.49 170.336 164.08 101.537l269.17-248.277c71.33-65.804 186.48-1.111 166.19 93.379l-28.41 132.361c-19.14 89.246 84.15 154.776 157.95 100.206l494.2-365.385c73.93-54.662 177.35 11.18 157.87 100.512L1946.23 1868.71" stroke="#6F3689" stroke-opacity=".12" stroke-width="100"/></svg><svg fill="none" viewBox="0 0 1440 2948" id="bg-line-2" xmlns="http://www.w3.org/2000/svg"><path d="M-575.829 517.806L363.092 63.913c95.743-46.285 194.968 94.518 132.962 188.676L377.321 432.885c-58.792 89.276 28.111 224.987 123.344 192.619l509.915-173.319c96.54-32.811 183.58 106.54 121.77 194.949L715.441 1243.33c-62.732 89.72 27.649 230.59 124.464 193.98l349.375-132.1c92.6-35.02 182.24 93.99 129.38 186.2l-74.03 129.18c-49.91 87.1 27.88 210.96 118.95 189.4l609.81-144.35c91.22-21.6 169.03 102.67 118.77 189.7l-611.98 1059.79" stroke="#6F3689" stroke-opacity=".12" stroke-width="100"/></svg><svg fill="none" viewBox="0 0 98 98" id="icon-star-gold" xmlns="http://www.w3.org/2000/svg"><g clip-path="url(#cclip0_323_10)" fill="#FFE193"><path d="M0 0l49 46.765L98 0 51.235 49 98 98 49 51.235 0 98l46.765-49L0 0z"/><path d="M49 12.645l1.58 34.774L85.356 49l-34.774 1.58L49 85.356l-1.58-34.774L12.644 49l34.774-1.58L49 12.644z"/></g><defs><clipPath id="cclip0_323_10"><path fill="#fff" d="M0 0h98v98H0z"/></clipPath></defs></svg><svg fill="none" viewBox="0 0 553 569" id="icon-star-radio-1" xmlns="http://www.w3.org/2000/svg"><path d="M387.047 410.316c-48.535 44.844-100.795 76.402-146.035 91.189-45.284 14.8-83.336 12.741-103.706-9.306-20.369-22.046-19.419-60.142-1.09-104.116 18.311-43.931 53.898-93.537 102.433-138.38 48.536-44.845 100.796-76.404 146.035-91.191 45.285-14.8 83.337-12.741 103.707 9.306 20.369 22.047 19.418 60.142 1.089 104.118-18.311 43.93-53.897 93.535-102.433 138.38z" stroke="#6F3689"/><path d="M480.405 217.226l19.37 26.935 27.809-18.093-26.934 19.371 18.092 27.808-19.37-26.934-27.809 18.092 26.935-19.37-18.093-27.809z" fill="#FDC949"/><path d="M502.853 227.735l-2.376 16.883 16.598 3.899-16.883-2.376-3.899 16.597 2.377-16.883-16.598-3.898 16.883 2.376 3.898-16.598z" fill="#FDC949"/></svg><svg fill="none" viewBox="0 0 430 516" id="icon-star-radio-2" xmlns="http://www.w3.org/2000/svg"><path d="M285.806 322.98c-39.445 53.017-84.997 93.663-126.739 116.529-41.784 22.889-79.564 27.874-103.646 9.956-24.082-17.917-30.165-55.536-20.249-102.135 9.906-46.552 35.746-101.863 75.191-154.88 39.445-53.017 84.997-93.662 126.739-116.528 41.784-22.89 79.564-27.874 103.646-9.957 24.082 17.917 30.165 55.536 20.249 102.135-9.906 46.552-35.746 101.864-75.191 154.88z" stroke="#6F3689"/><path d="M216 50l24 22.905L264 50l-22.905 24L264 98l-24-22.905L216 98l22.905-24L216 50z" fill="#FDC949"/><path d="M240 56.194l.774 17.032 17.032.774-17.032.774L240 91.806l-.774-17.032L222.194 74l17.032-.774.774-17.032z" fill="#FDC949"/></svg><svg fill="none" viewBox="0 0 345 423" id="icon-star-radio-3" xmlns="http://www.w3.org/2000/svg"><path d="M258.489 155.072c41.001 51.822 68.471 106.342 79.755 152.58 11.294 46.284 6.331 84.067-17.209 102.691-23.539 18.624-61.451 14.763-103.895-6.875-42.402-21.617-89.141-60.893-130.142-112.715C45.996 238.93 18.526 184.41 7.242 138.172-4.052 91.888.911 54.105 24.451 35.481c23.54-18.624 61.451-14.763 103.896 6.876 42.402 21.617 89.14 60.892 130.142 112.715z" stroke="#6F3689"/><path d="M73.104 47.222l28.337-17.254L85.528.858l17.254 28.336 29.11-15.913-28.336 17.254 15.913 29.11-17.254-28.336-29.111 15.913z" fill="#FDC949"/><path d="M85.299 25.642l16.652 3.66 5.156-16.25-3.66 16.652 16.251 5.156-16.652-3.66-5.156 16.25 3.66-16.652-16.251-5.156z" fill="#FDC949"/></svg><svg fill="none" viewBox="0 0 82 82" id="icon-star-white" xmlns="http://www.w3.org/2000/svg"><g clip-path="url(#gclip0_53_16)" fill="#fff"><path d="M0 0l41 39.13L82 0 42.87 41 82 82 41 42.87 0 82l39.13-41L0 0z"/><path d="M41 10.58l1.323 29.097L71.419 41l-29.096 1.322L41 71.42l-1.323-29.097L10.581 41l29.096-1.323L41 10.581z"/></g><defs><clipPath id="gclip0_53_16"><path fill="#fff" d="M0 0h82v82H0z"/></clipPath></defs></svg></svg>