<svg width="171" height="169" fill="none" xmlns="http://www.w3.org/2000/svg"><g clip-path="url(#a)"><path d="M70.789 9.746c7.248-10.02 22.174-10.02 29.422 0a22.16 22.16 0 0 0 23.356 8.5c11.993-3.015 23.426 6.579 22.539 18.913a22.159 22.159 0 0 0 12.427 21.525c11.126 5.399 13.718 20.097 5.11 28.976a22.158 22.158 0 0 0-4.316 24.477c5.052 11.287-2.41 24.212-14.712 25.48a22.158 22.158 0 0 0-19.039 15.977c-3.385 11.894-17.41 16.999-27.649 10.063a22.158 22.158 0 0 0-24.854 0c-10.239 6.936-24.264 1.831-27.649-10.063a22.159 22.159 0 0 0-19.04-15.977c-12.3-1.268-19.763-14.193-14.71-25.48A22.158 22.158 0 0 0 7.356 87.66c-8.608-8.879-6.016-23.577 5.11-28.976a22.158 22.158 0 0 0 12.427-21.525c-.887-12.334 10.546-21.928 22.539-18.912a22.158 22.158 0 0 0 23.356-8.501Z" fill="#FFD262" stroke="#fff" stroke-width="4"/></g><defs><clipPath id="a"><path fill="#fff" d="M0 0h171v169H0z"/></clipPath></defs></svg>